<svg width="58" height="41" viewBox="0 0 58 41" fill="none" xmlns="http://www.w3.org/2000/svg">
<g id="Convert">
<path id="Vector" d="M53.9725 15.9953H50.0331L50.0046 15.8758C49.4955 13.8182 48.8389 12.1677 47.8826 10.5304C45.4182 6.31339 41.4074 3.02118 36.6307 1.3087C34.799 0.653796 33.0006 0.259969 30.9073 0.0564189C30.1413 -0.0188063 27.6863 -0.0188063 26.9584 0.0564189C24.099 0.34847 21.8439 0.950271 19.4413 2.06095C18.366 2.56098 17.562 2.99905 16.7294 3.5389C12.8709 6.05231 10.0211 9.57462 8.54142 13.6501C8.29402 14.3404 7.87059 15.7741 7.90865 15.8095C7.91341 15.8183 9.5215 14.3404 11.4817 12.5261L15.0404 9.22947L17.2194 11.2517L19.3984 13.2739L19.5174 13.1412C20.8543 11.6765 21.8772 10.8888 23.4044 10.1543C24.5795 9.5879 25.5929 9.27372 26.9917 9.03919C27.5245 8.95512 27.7624 8.94184 28.909 8.93742C30.3411 8.93742 30.7169 8.97282 31.854 9.22947C34.8228 9.90207 37.4586 11.6765 39.0667 14.0926C39.3283 14.4908 39.9516 15.6413 40.0182 15.8537L40.0467 15.9511H38.9144C34.7943 15.9466 27.8148 15.9732 27.8148 15.9909C27.8148 16.0086 31.1975 19.1636 35.3319 23.009L42.9068 30.0005L50.3804 22.9957L57.9071 15.9953H53.9725Z" fill="#084CFB"/>
<path id="Vector_2" d="M46.4633 27.4792L43.1662 30.5406C43.0096 30.686 42.7674 30.6859 42.611 30.5405L40.6988 28.7626C39.3898 27.5456 38.4949 26.7445 38.4711 26.771C38.4473 26.7976 38.2902 26.9746 38.1141 27.1738C37.9427 27.3729 37.5524 27.7536 37.2478 28.0235C35.5199 29.5681 33.4016 30.5595 30.9835 30.9534C30.1314 31.0906 28.4035 31.126 27.5134 31.0242C24.0004 30.6126 20.9682 28.8821 19.0452 26.1957C18.6501 25.6381 18.1455 24.7618 17.9456 24.2838V24.2838C17.9 24.1716 17.9825 24.049 18.1035 24.0488L23.3864 24.0404C26.4281 24.0315 29.1889 24.0271 29.5269 24.0271C29.8601 24.0271 30.1314 24.0227 30.1314 24.0182C30.1314 24.005 15.3275 10.2454 15.1657 10.1082V10.1082C15.0921 10.0474 14.9849 10.0505 14.915 10.1155L7.52096 16.9902C3.38443 20.8361 0 23.9961 0 24.0138C0 24.0359 1.77076 24.0492 3.94136 24.0492L7.56223 24.0492C7.74812 24.0492 7.91048 24.1749 7.95703 24.3549L8.05885 24.7485C8.82046 27.6695 10.358 30.4754 12.5143 32.8786C12.9998 33.4141 14.2422 34.5913 14.8277 35.0693C18.1931 37.7955 22.1821 39.4286 26.7042 39.9243C27.5753 40.0173 30.2028 40.0305 31.0358 39.9464C34.5916 39.5791 37.6571 38.5789 40.5894 36.8352C42.5696 35.6623 44.4831 34.0292 45.9635 32.259C47.9342 29.9045 49.2861 27.2313 50.0001 24.2926C50.0286 24.1908 49.2242 24.9122 46.4633 27.4792Z" fill="#FA000F"/>
</g>
</svg>
