<svg width="24" height="22" viewBox="0 0 24 22" fill="none" xmlns="http://www.w3.org/2000/svg">
<g id="Speed">
<path id="Vector" d="M20.043 9.76C19.902 9.333 19.729 8.916 19.527 8.518L17.073 9.624C17.29 10.017 17.463 10.434 17.59 10.866L20.043 9.76ZM7.471 8.856C7.742 8.502 8.05 8.182 8.389 7.899L6.499 5.931C6.171 6.224 5.862 6.545 5.58 6.888L7.471 8.856V8.856ZM9.185 7.342C9.565 7.121 9.966 6.946 10.383 6.819L9.35 4.25C8.938 4.392 8.537 4.567 8.15 4.774L9.185 7.342V7.342ZM6.426 10.957C6.547 10.522 6.713 10.103 6.924 9.707L4.454 8.641C4.258 9.044 4.09 9.464 3.956 9.891L6.426 10.957ZM15.86 4.757C15.473 4.552 15.07 4.378 14.66 4.238L13.637 6.811C14.055 6.936 14.457 7.11 14.837 7.33L15.86 4.757V4.757ZM18.461 6.888C18.18 6.546 17.871 6.224 17.543 5.931L15.652 7.899C15.992 8.182 16.3 8.503 16.571 8.856L18.461 6.888V6.888ZM12.67 3.828C12.451 3.811 12.233 3.802 12.022 3.802C11.809 3.802 11.59 3.811 11.372 3.828V6.612C11.588 6.587 11.806 6.574 12.022 6.574C12.237 6.574 12.456 6.587 12.67 6.612V3.828ZM12.021 17.61C10.728 17.61 9.678 16.561 9.678 15.267C9.678 14.384 10.167 13.615 10.888 13.216L12.021 7.907L13.154 13.216C13.877 13.615 14.365 14.384 14.365 15.267C14.365 16.561 13.316 17.61 12.021 17.61V17.61ZM12 2C17.514 2 22 6.486 22 12C22 13.758 21.542 15.5 20.697 17H16.27C15.86 18.047 14.625 20 12 20C9.344 20 8.141 18.047 7.73 17H3.303C2.458 15.5 2 13.758 2 12C2 6.486 6.486 2 12 2ZM12 0C5.373 0 0 5.373 0 12C0 14.583 0.816 17.042 2.205 19H6.562C7.492 20.647 9.577 22 12 22C14.423 22 16.508 20.647 17.438 19H21.795C23.184 17.042 24 14.583 24 12C24 5.373 18.627 0 12 0V0Z" fill="black"/>
<path id="Inside" fill-rule="evenodd" clip-rule="evenodd" d="M12 2C6.48438 2 2 6.48633 2 12C2 13.0889 2.17578 14.1719 2.51172 15.1953C2.71484 15.8242 2.98047 16.4297 3.30469 17H7.73047C8.14062 18.0469 9.34375 20 12 20C14.625 20 15.8594 18.0469 16.2695 17H20.6953C21.543 15.5 22 13.7578 22 12C22 6.48633 17.5156 2 12 2ZM20.043 9.75977C19.9023 9.33301 19.7305 8.91602 19.5273 8.51758L17.0742 9.62402L17.2344 9.94043L17.3555 10.2061C17.4453 10.4209 17.5234 10.6416 17.5898 10.8662L20.043 9.75977ZM7.47266 8.85645C7.74219 8.50195 8.05078 8.18164 8.39062 7.89941L6.5 5.93066C6.38672 6.03027 6.27734 6.13379 6.17188 6.24023C5.96484 6.44531 5.76562 6.66211 5.57812 6.8877L7.47266 8.85645ZM9.18359 7.3418C9.56641 7.12109 9.96484 6.94629 10.3828 6.81934L9.35156 4.25C8.9375 4.3916 8.53516 4.56738 8.14844 4.77441L9.18359 7.3418ZM6.42578 10.957C6.54688 10.5225 6.71484 10.1025 6.92578 9.70703L4.45312 8.64062C4.25781 9.04395 4.08984 9.46387 3.95703 9.89062L6.42578 10.957ZM15.8594 4.75684C15.6289 4.63574 15.3945 4.52539 15.1602 4.42676L14.8125 4.29102L14.6602 4.23828L13.6367 6.81055C14.0547 6.93555 14.457 7.11035 14.8359 7.33008L15.8594 4.75684ZM18.4609 6.8877C18.1797 6.5459 17.8711 6.22363 17.543 5.93066L15.6523 7.89941C15.9922 8.18164 16.3008 8.50293 16.5703 8.85645L18.4609 6.8877ZM12.6719 3.82812L12.3359 3.80762L12.0234 3.80176C11.8086 3.80176 11.5898 3.81055 11.3711 3.82812V6.6123C11.5898 6.58691 11.8047 6.57422 12.0234 6.57422C12.2383 6.57422 12.457 6.58691 12.6719 6.6123V3.82812ZM12.0195 17.6104C10.7266 17.6104 9.67969 16.5605 9.67969 15.2666C9.67969 14.3838 10.168 13.6152 10.8867 13.2158L12.0195 7.90723L13.1523 13.2158C13.4062 13.3545 13.6289 13.5381 13.8125 13.7559C13.9922 13.9717 14.1367 14.2207 14.2305 14.4922C14.3164 14.7344 14.3633 14.9951 14.3633 15.2666C14.3633 16.5605 13.3164 17.6104 12.0195 17.6104Z" fill="#9333EA"/>
</g>
</svg>
