<svg width="13" height="24" viewBox="0 0 13 24" fill="none" xmlns="http://www.w3.org/2000/svg">
<g id="Temp">
<g id="TempOuter">
<path d="M5 3.5V11.025C5 12.595 4.486 13.313 3.59 14.074C2.579 14.933 2 16.181 2 17.5C2 19.981 4.019 22 6.5 22C8.981 22 11 19.981 11 17.5C11 16.181 10.421 14.933 9.411 14.074C8.514 13.312 8 12.594 8 11.025V3.5C8 2.673 7.327 2 6.5 2C5.673 2 5 2.673 5 3.5ZM10 3.5V11.025C10 11.612 10.258 12.17 10.705 12.55C12.108 13.742 13 15.516 13 17.5C13 21.09 10.091 24 6.5 24C2.909 24 0 21.09 0 17.5C0 15.516 0.892 13.742 2.295 12.551C2.742 12.17 3 11.611 3 11.025V3.5C3 1.566 4.567 0 6.5 0C8.433 0 10 1.566 10 3.5Z" fill="black"/>
<path d="M5 3.5V11.025C5 12.595 4.486 13.313 3.59 14.074C2.579 14.933 2 16.181 2 17.5C2 19.981 4.019 22 6.5 22C8.981 22 11 19.981 11 17.5C11 16.181 10.421 14.933 9.411 14.074C8.514 13.312 8 12.594 8 11.025V3.5C8 2.673 7.327 2 6.5 2C5.673 2 5 2.673 5 3.5ZM10 3.5V11.025C10 11.612 10.258 12.17 10.705 12.55C12.108 13.742 13 15.516 13 17.5C13 21.09 10.091 24 6.5 24C2.909 24 0 21.09 0 17.5C0 15.516 0.892 13.742 2.295 12.551C2.742 12.17 3 11.611 3 11.025V3.5C3 1.566 4.567 0 6.5 0C8.433 0 10 1.566 10 3.5Z" fill="black"/>
</g>
<g id="TempInner">
<path d="M10 17.5C10 19.434 8.433 21 6.5 21C4.567 21 3 19.434 3 17.5C3 16.359 3.599 15.416 4.393 14.719C5.403 13.83 6 12.982 6 11.498V3H7V11.498C7 12.984 7.595 13.828 8.607 14.719C9.401 15.416 10 16.359 10 17.5Z" fill="black"/>
<path d="M10 17.5C10 19.434 8.433 21 6.5 21C4.567 21 3 19.434 3 17.5C3 16.359 3.599 15.416 4.393 14.719C5.403 13.83 6 12.982 6 11.498V3H7V11.498C7 12.984 7.595 13.828 8.607 14.719C9.401 15.416 10 16.359 10 17.5Z" fill="black"/>
</g>
</g>
</svg>
