<svg width="20" height="24" viewBox="0 0 20 24" fill="none" xmlns="http://www.w3.org/2000/svg">
<g id="TimeOutside">
<path d="M4 14H10V8C13.309 8 16 10.691 16 14C16 17.309 13.309 20 10 20C6.691 20 4 17.309 4 14ZM20 14C20 19.523 15.522 24 10 24C4.478 24 0 19.523 0 14C0 8.477 4.478 4 10 4C15.522 4 20 8.477 20 14ZM18 14C18 9.589 14.411 6 10 6C5.589 6 2 9.589 2 14C2 18.411 5.589 22 10 22C14.411 22 18 18.411 18 14ZM12 2.181V0H8V2.181C9.408 1.943 10.562 1.938 12 2.181ZM18.679 5.735L20 4.414L18.586 3L17.179 4.407C17.715 4.809 18.217 5.251 18.679 5.735V5.735Z" fill="black"/>
</g>
<g id="TimeInside">
<path  fill-rule="evenodd" clip-rule="evenodd" d="M10 14H4C4 17.3086 6.69141 20 10 20C13.3086 20 16 17.3086 16 14C16 10.6914 13.3086 8 10 8V14ZM15.9336 8.63672C17.2188 10.0566 18 11.9385 18 14C18 18.4111 14.4102 22 10 22C5.58984 22 2 18.4111 2 14C2 9.58887 5.58984 6 10 6C12.3477 6 14.4648 7.01855 15.9336 8.63672Z" fill="#1121EF"/>
</g>
</svg>
