<svg width="24" height="25" viewBox="0 0 24 25" fill="none" xmlns="http://www.w3.org/2000/svg">
<g id="TO">
<g id="RedArrow">
<path d="M19.6822 1.7056C20.0737 1.31593 20.707 1.31746 21.0966 1.70901L22.6659 3.28622C23.0554 3.67768 23.0538 4.31077 22.6624 4.70033L12.8915 14.4249C12.5014 14.8132 11.8708 14.8132 11.4807 14.425L1.70896 4.70045C1.31747 4.31085 1.31596 3.67764 1.70559 3.28618L3.27563 1.70878C3.66524 1.31733 4.29842 1.31586 4.68985 1.70548L11.4806 8.4648C11.8708 8.85314 12.5014 8.85314 12.8916 8.4648L19.6822 1.7056Z" fill="#FB0404"/>
<path d="M19.6822 1.7056C20.0737 1.31593 20.707 1.31746 21.0966 1.70901L22.6659 3.28622C23.0554 3.67768 23.0538 4.31077 22.6624 4.70033L12.8915 14.4249C12.5014 14.8132 11.8708 14.8132 11.4807 14.425L1.70896 4.70045C1.31747 4.31085 1.31596 3.67764 1.70559 3.28618L3.27563 1.70878C3.66524 1.31733 4.29842 1.31586 4.68985 1.70548L11.4806 8.4648C11.8708 8.85314 12.5014 8.85314 12.8916 8.4648L19.6822 1.7056Z" fill="#FB0404"/>
<path d="M11.4806 8.4648L4.68985 1.70548C4.29842 1.31586 3.66524 1.31733 3.27563 1.70878L1.70559 3.28618C1.31596 3.67764 1.31747 4.31085 1.70896 4.70045L11.4807 14.425C11.8708 14.8132 12.5014 14.8132 12.8915 14.4249L22.6624 4.70033C23.0538 4.31077 23.0554 3.67768 22.6659 3.28622L21.0966 1.70901C20.707 1.31746 20.0737 1.31593 19.6822 1.7056L12.8916 8.4648C12.5014 8.85314 11.8708 8.85314 11.4806 8.4648Z" stroke="black"/>
</g>
<g id="BlueArrow">
<path d="M19.6822 10.7056C20.0737 10.3159 20.707 10.3175 21.0966 10.709L22.6659 12.2862C23.0554 12.6777 23.0538 13.3108 22.6624 13.7003L12.8915 23.4249C12.5014 23.8132 11.8708 23.8132 11.4807 23.425L1.70896 13.7004C1.31747 13.3108 1.31596 12.6776 1.70559 12.2862L3.27563 10.7088C3.66524 10.3173 4.29842 10.3159 4.68985 10.7055L11.4806 17.4648C11.8708 17.8531 12.5014 17.8531 12.8916 17.4648L19.6822 10.7056Z" fill="#1121EF"/>
<path d="M19.6822 10.7056C20.0737 10.3159 20.707 10.3175 21.0966 10.709L22.6659 12.2862C23.0554 12.6777 23.0538 13.3108 22.6624 13.7003L12.8915 23.4249C12.5014 23.8132 11.8708 23.8132 11.4807 23.425L1.70896 13.7004C1.31747 13.3108 1.31596 12.6776 1.70559 12.2862L3.27563 10.7088C3.66524 10.3173 4.29842 10.3159 4.68985 10.7055L11.4806 17.4648C11.8708 17.8531 12.5014 17.8531 12.8916 17.4648L19.6822 10.7056Z" fill="#1121EF"/>
<path d="M11.4806 17.4648L4.68985 10.7055C4.29842 10.3159 3.66524 10.3173 3.27563 10.7088L1.70559 12.2862C1.31596 12.6776 1.31747 13.3108 1.70896 13.7004L11.4807 23.425C11.8708 23.8132 12.5014 23.8132 12.8915 23.4249L22.6624 13.7003C23.0538 13.3108 23.0554 12.6777 22.6659 12.2862L21.0966 10.709C20.707 10.3175 20.0737 10.3159 19.6822 10.7056L12.8916 17.4648C12.5014 17.8531 11.8708 17.8531 11.4806 17.4648Z" stroke="black"/>
</g>
</g>
</svg>
