<svg width="994" height="1280" viewBox="0 0 994 1280" fill="none" xmlns="http://www.w3.org/2000/svg">
<g clip-path="url(#clip0_603_2)">
<path d="M273.364 876.25L227.372 919.503L304.057 991.753L304.058 991.754C325.906 1012.36 345.73 1031.11 360.067 1044.73C367.235 1051.53 373.034 1057.06 377.03 1060.89C379.027 1062.81 380.58 1064.31 381.63 1065.33C382.152 1065.84 382.564 1066.25 382.847 1066.54C382.983 1066.67 383.117 1066.81 383.225 1066.93C383.268 1066.98 383.366 1067.08 383.466 1067.21L383.469 1067.22C383.504 1067.26 383.65 1067.45 383.792 1067.7L383.795 1067.71C383.847 1067.8 384.069 1068.2 384.172 1068.77C384.217 1069.1 384.185 1069.95 384.066 1070.46C383.895 1070.85 383.481 1071.41 383.041 1071.87L383.123 1071.95C382.488 1072.55 381.808 1072.75 381.558 1072.81C381.24 1072.9 380.966 1072.93 380.8 1072.94C380.463 1072.96 380.148 1072.95 379.928 1072.93C379.463 1072.9 378.916 1072.82 378.353 1072.72C377.203 1072.53 375.648 1072.21 373.822 1071.81C370.152 1070.99 365.196 1069.78 359.771 1068.39C348.926 1065.61 336.073 1062.07 327.68 1059.44L327.667 1059.44C228.837 1028.12 143.395 967.793 82.4185 886.094L82.4139 886.088C69.2927 868.426 58.6517 851.374 46.5418 828.647L46.5378 828.639C19.5755 777.734 4.96124 729.913 -2.11953 669.408C-3.05276 661.521 -3.50195 644.6 -3.50195 627.801C-3.50195 610.989 -3.05193 593.88 -2.1213 585.609C2.81455 541.308 12.3743 503.191 28.2759 464.374L28.2771 464.371C69.8537 363.153 149.748 278.241 252.006 226.083L252.007 226.083C291.739 205.828 331.779 191.935 381.588 181.18L381.6 181.177L381.612 181.174L381.704 181.155V101.201V18.5008V10.4167L387.599 15.9485L556.185 174.149L724.877 332.449L727.597 335.001L724.877 337.553L556.504 495.553C510.201 539.004 468.053 578.505 437.427 607.145C422.114 621.464 409.68 633.07 401.046 641.097C396.73 645.11 393.359 648.232 391.053 650.353C389.901 651.411 389.006 652.228 388.389 652.783C388.083 653.058 387.83 653.283 387.642 653.445C387.553 653.522 387.451 653.609 387.353 653.687C387.311 653.72 387.221 653.791 387.111 653.867C387.062 653.901 386.942 653.982 386.783 654.069C386.699 654.114 386.488 654.213 386.358 654.266C386.142 654.342 385.513 654.476 385.097 654.501C384.077 654.349 382.683 653.536 382.29 653.092C382.113 652.832 381.884 652.392 381.815 652.221C381.706 651.932 381.661 651.69 381.648 651.624L381.648 651.622C381.614 651.442 381.599 651.287 381.593 651.227C381.578 651.072 381.568 650.901 381.561 650.748C381.545 650.426 381.531 649.976 381.516 649.422C381.488 648.305 381.459 646.67 381.43 644.577C381.372 640.385 381.312 634.308 381.253 626.753C381.135 611.641 381.018 590.592 380.918 566.84C380.718 519.337 380.585 461.005 380.638 417.696V398.612C379.403 399.094 377.752 399.781 375.756 400.651C372.331 402.144 368.122 404.069 363.76 406.128C355.009 410.259 345.8 414.855 341.132 417.532C283.722 450.884 241.606 505.528 225.654 566.98C222.575 578.884 220.867 586.643 219.909 595.119C218.948 603.626 218.733 612.947 218.733 627.992C218.839 652.037 219.16 656.79 221.124 667.659C226.707 696.713 234.154 717.657 247.602 742.009L247.603 742.011C265.022 773.619 283.65 794.779 318.637 822.652C318.641 822.656 318.646 822.66 318.65 822.663L321.822 825.144L325.035 827.656L322.064 830.45L273.364 876.25ZM378.063 1071.66C378.063 1071.66 378.062 1071.66 378.061 1071.66C378.068 1071.66 378.07 1071.66 378.063 1071.66ZM380.48 1065.95C380.48 1065.95 380.476 1065.95 380.47 1065.95C380.478 1065.95 380.481 1065.95 380.48 1065.95Z" fill="url(#paint0_linear_603_2)" stroke="#0A4DFA" stroke-width="7"/>
<path d="M734.754 334.995L657.936 262.814L734.754 334.995ZM734.754 334.995L688.84 378.08C674.179 391.839 662.009 403.433 653.578 411.659C649.367 415.767 646.063 419.059 643.842 421.368C642.741 422.513 641.856 423.467 641.251 424.18C640.965 424.515 640.647 424.907 640.395 425.29C640.292 425.446 640.045 425.827 639.864 426.326C639.779 426.558 639.595 427.11 639.608 427.832C639.623 428.636 639.913 429.974 641.159 430.948C641.811 431.458 646.085 434.767 650.877 438.464L650.898 438.48L650.919 438.496C655.508 441.941 664.528 450 670.975 456.348L670.981 456.354L670.987 456.36C707.591 492.087 731.061 535.843 740.394 585.824C743.619 603.299 744.465 639.177 742.066 657.477C732.316 730.055 691.354 792.717 627.656 832.502C614.401 840.694 593.572 851.147 582.38 855.234C582.374 855.236 582.368 855.238 582.362 855.241L582.075 855.342L581.872 744.691V744.685C581.659 680.785 581.553 622.791 581.553 615.698C581.553 612.18 581.526 608.981 581.485 606.653C581.465 605.493 581.441 604.529 581.415 603.843C581.402 603.508 581.387 603.196 581.367 602.948C581.363 602.892 581.357 602.816 581.348 602.729C581.339 602.647 581.328 602.554 581.314 602.46C581.303 602.389 581.266 602.146 581.178 601.856C581.143 601.741 581.028 601.365 580.772 600.939L580.767 600.931C580.661 600.752 579.62 598.998 577.34 598.998C576.231 599.154 575.067 599.705 574.928 599.806C574.894 599.832 574.851 599.866 574.814 599.895C574.79 599.915 574.768 599.932 574.755 599.943C574.7 599.989 574.65 600.033 574.622 600.058C574.556 600.116 574.476 600.188 574.391 600.266C574.215 600.426 573.964 600.658 573.644 600.953C573.002 601.547 572.058 602.425 570.834 603.565C568.387 605.846 564.807 609.191 560.259 613.447C551.161 621.959 538.179 634.122 522.6 648.726C491.442 677.937 449.894 716.919 408.254 756.007C325.058 834.102 241.274 912.823 239.536 914.611L239.519 914.629L239.501 914.648L236.944 917.348L234.18 920.265L237.111 923.015L405.377 1080.92C451.681 1124.37 493.856 1163.87 524.51 1192.51C539.836 1206.83 552.284 1218.44 560.929 1226.46C565.25 1230.48 568.626 1233.6 570.937 1235.72C572.09 1236.78 572.988 1237.6 573.608 1238.15C573.915 1238.43 574.171 1238.66 574.363 1238.82C574.454 1238.9 574.562 1238.99 574.668 1239.08C574.713 1239.11 574.813 1239.19 574.937 1239.28C574.992 1239.32 575.127 1239.41 575.309 1239.51C575.404 1239.56 575.645 1239.67 575.794 1239.73C576.04 1239.82 576.759 1239.97 577.233 1240C578.807 1240 579.801 1239.12 580.198 1238.69C580.605 1238.25 580.814 1237.81 580.898 1237.63C581.078 1237.23 581.158 1236.89 581.184 1236.77C581.251 1236.48 581.286 1236.19 581.306 1236.01C581.35 1235.61 581.386 1235.1 581.417 1234.53C581.48 1233.36 581.537 1231.68 581.59 1229.57C581.695 1225.34 581.786 1219.24 581.859 1211.74C582.006 1196.72 582.085 1176.01 582.085 1153.2V1073.7L595.803 1070.6L595.81 1070.6C666.729 1054.47 734.828 1021.9 793.149 976.248L793.157 976.242L793.165 976.236C806.217 965.911 834.71 939.675 846.353 927.231L846.359 927.226L846.364 927.22C912.572 855.913 952.263 771.337 964.303 675.496L964.305 675.483C965.455 666.077 966.093 647.49 966.199 629.221C966.306 610.961 965.885 592.559 964.841 583.538L964.84 583.527C955.92 508.192 931.609 443.179 889.257 381.044C860.745 339.044 821.095 298.52 778.123 267.167C720.974 225.433 656.104 196.813 584.836 181.696C584.508 181.618 583.403 181.393 582.18 181.925C581.363 182.28 580.607 182.93 580.147 183.861C579.728 184.711 579.7 185.502 579.736 185.987C579.8 186.862 580.13 187.518 580.241 187.735C580.4 188.045 580.578 188.318 580.723 188.526C581.267 189.305 582.168 190.331 583.287 191.529C585.611 194.014 589.547 197.943 595.429 203.644C607.218 215.07 627.034 233.815 657.934 262.812L734.754 334.995ZM582.995 189.482C583.011 189.486 583.076 189.504 583.182 189.523C583.16 189.519 583.139 189.514 583.117 189.51L583.056 189.497L582.995 189.482Z" fill="url(#paint1_linear_603_2)" stroke="#FF0000" stroke-width="8"/>
</g>
<defs>
<linearGradient id="paint0_linear_603_2" x1="361.24" y1="1069.45" x2="361.24" y2="18.5008" gradientUnits="userSpaceOnUse">
<stop stop-color="#084CFB" stop-opacity="0"/>
<stop offset="1" stop-color="#0A4DFA"/>
</linearGradient>
<linearGradient id="paint1_linear_603_2" x1="601.032" y1="1236" x2="601.032" y2="185.581" gradientUnits="userSpaceOnUse">
<stop stop-color="#FA000F"/>
<stop offset="1" stop-color="#FF0615" stop-opacity="0"/>
<stop offset="1" stop-color="#F9F9F9" stop-opacity="0"/>
</linearGradient>
<clipPath id="clip0_603_2">
<rect width="994" height="1280" fill="white"/>
</clipPath>
</defs>
</svg>
