<svg width="1678" height="1239" viewBox="0 0 1678 1239" fill="none" xmlns="http://www.w3.org/2000/svg">
<path d="M5.47559 580.45C12.514 536.022 26.147 497.812 48.7904 458.939L48.7925 458.936C107.967 357.623 221.491 272.893 366.419 220.906L366.42 220.906C422.734 200.717 479.479 186.868 550.123 176.14L550.132 176.139L550.14 176.138L551.24 175.977V96.2008V13.5008V6.9975L556.667 10.5797L796.386 168.78L1036.26 327.08L1040.68 330.001L1036.26 332.922L796.841 490.922C731.001 534.372 671.069 573.874 627.521 602.513C605.748 616.832 588.068 628.437 575.793 636.463C569.656 640.475 564.865 643.596 561.588 645.715C559.951 646.774 558.683 647.587 557.811 648.139C557.378 648.413 557.027 648.632 556.772 648.787C556.649 648.862 556.52 648.938 556.405 649.003C556.353 649.032 556.26 649.083 556.151 649.136C556.102 649.16 555.993 649.212 555.855 649.265C555.784 649.291 555.611 649.349 555.507 649.378C555.342 649.419 554.884 649.488 554.588 649.501C553.821 649.416 552.614 648.892 552.184 648.546C551.942 648.295 551.603 647.834 551.491 647.639C551.301 647.282 551.218 646.971 551.193 646.88C551.129 646.641 551.101 646.437 551.091 646.365C551.08 646.286 551.072 646.205 551.064 646.127C551.053 646.017 551.045 645.912 551.039 645.82C551.015 645.48 550.994 645.016 550.973 644.46C550.932 643.334 550.891 641.692 550.85 639.597C550.767 635.401 550.682 629.32 550.598 621.765C550.43 606.65 550.264 585.599 550.122 561.847C549.838 514.341 549.648 456.007 549.724 412.695V393.117C545.581 394.085 534.905 397.408 523.226 401.285C510.771 405.42 497.606 410.039 490.896 412.745C408.752 446.306 348.922 501.119 326.335 562.313L5.47559 580.45Z" fill="url(#paint0_linear_603_3)" stroke="#0A4DFA" stroke-width="7"/>
<path d="M1228.1 433.824L1228.12 433.835C1234.74 437.329 1247.62 445.429 1256.8 451.786L1256.81 451.791L1256.81 451.795C1309.09 487.677 1342.33 531.436 1355.52 581.114C1357.76 589.642 1359.22 602.85 1359.67 616.381C1360.12 629.898 1359.55 643.31 1357.89 652.248C1344.12 724.336 1286.11 787.165 1194.89 827.234C1175.95 835.466 1146.17 845.982 1130.06 850.12C1130.05 850.121 1130.05 850.123 1130.04 850.124L1126.99 850.883L1126.7 739.688L1126.7 739.679C1126.4 675.78 1126.25 617.788 1126.25 610.698C1126.25 607.173 1126.21 603.964 1126.15 601.624C1126.12 600.46 1126.09 599.481 1126.05 598.777C1126.03 598.437 1126.01 598.1 1125.98 597.819C1125.96 597.7 1125.94 597.468 1125.88 597.215C1125.86 597.12 1125.79 596.803 1125.63 596.434C1125.56 596.266 1125.37 595.845 1124.99 595.401C1124.64 594.996 1123.63 593.998 1121.94 593.998C1121.12 594.084 1120.19 594.4 1120.06 594.466C1120.01 594.496 1119.92 594.543 1119.89 594.564C1119.87 594.578 1119.84 594.592 1119.82 594.606C1119.79 594.625 1119.76 594.644 1119.73 594.658C1119.65 594.71 1119.54 594.778 1119.42 594.855C1119.18 595.012 1118.82 595.241 1118.37 595.537C1117.46 596.129 1116.12 597.006 1114.38 598.146C1110.9 600.426 1105.81 603.77 1099.34 608.026C1086.41 616.538 1067.95 628.7 1045.8 643.305C1001.49 672.515 942.413 711.497 883.203 750.585C764.874 828.7 645.784 907.391 643.342 909.158L643.323 909.172L643.303 909.187L639.666 911.887L635.081 915.291L639.848 918.437L879.112 1076.34C944.953 1119.79 1004.92 1159.29 1048.51 1187.93C1070.3 1202.25 1088 1213.85 1100.29 1221.88C1106.44 1225.89 1111.23 1229.01 1114.52 1231.13C1116.16 1232.19 1117.43 1233.01 1118.3 1233.56C1118.74 1233.84 1119.09 1234.06 1119.35 1234.21C1119.48 1234.29 1119.61 1234.37 1119.73 1234.44C1119.79 1234.47 1119.89 1234.53 1120.01 1234.58C1120.07 1234.61 1120.19 1234.67 1120.35 1234.73C1120.43 1234.76 1120.62 1234.83 1120.74 1234.86C1120.93 1234.91 1121.45 1234.98 1121.79 1235C1123.98 1235 1125.03 1233.38 1125.19 1233.15C1125.48 1232.69 1125.62 1232.27 1125.67 1232.12C1125.79 1231.74 1125.85 1231.39 1125.88 1231.2C1125.95 1230.75 1126.01 1230.2 1126.05 1229.62C1126.14 1228.43 1126.22 1226.73 1126.3 1224.62C1126.45 1220.37 1126.58 1214.26 1126.68 1206.75C1126.89 1191.73 1127 1171.01 1127 1148.2V1068.91L1147.57 1065.65L1147.58 1065.65C1248.01 1049.58 1344.52 1017.14 1427.23 971.602L1427.24 971.598L1427.25 971.594C1445.74 961.309 1486.2 935.11 1502.72 922.696L1502.72 922.691L1502.73 922.687C1596.69 851.518 1653.29 766.897 1670.48 670.701L1670.48 670.692L1670.48 670.683C1672.13 661.173 1673.04 642.499 1673.19 624.231C1673.34 605.975 1672.75 587.48 1671.24 578.348L1671.24 578.341L1671.24 578.334C1658.51 502.729 1623.83 437.613 1563.64 375.513C1523.13 333.546 1466.85 293.101 1405.92 261.839C1324.88 220.221 1232.95 191.705 1131.97 176.647C1131.7 176.601 1130.87 176.479 1129.93 176.768C1129.33 176.949 1128.44 177.375 1127.76 178.334C1127.07 179.325 1126.97 180.376 1127.05 181.109C1127.17 182.264 1127.75 183.063 1127.89 183.254L1127.9 183.266C1128.13 183.586 1128.38 183.857 1128.58 184.054C1129.32 184.805 1130.57 185.801 1132.15 186.993C1135.43 189.462 1141.01 193.377 1149.37 199.077C1166.12 210.496 1194.29 229.237 1238.23 258.234L1228.1 433.824ZM1228.1 433.824L1228.08 433.813C1221.26 430.115 1215.19 426.809 1214.27 426.302C1212.95 425.58 1212.21 424.239 1212.17 422.862C1212.15 421.843 1212.51 421.1 1212.64 420.855C1212.94 420.289 1213.31 419.889 1213.43 419.756C1213.78 419.389 1214.21 419.015 1214.61 418.688C1215.45 417.993 1216.68 417.053 1218.25 415.912C1221.39 413.613 1226.07 410.33 1232.06 406.224C1244.04 398.005 1261.34 386.415 1282.18 372.659L1346.83 329.995L1238.24 258.235L1228.1 433.824ZM1117.98 1229.97C1117.98 1229.97 1117.98 1229.96 1117.98 1229.95C1117.98 1229.96 1117.98 1229.97 1117.98 1229.97Z" fill="url(#paint1_linear_603_3)" stroke="#FF0000" stroke-width="8"/>
<path d="M585.678 836.784L599.634 826.645C603.765 833.86 606.199 841.235 606.935 848.77C607.672 856.305 606.332 863.683 602.915 870.903C599.464 878.075 593.498 884.742 585.018 890.903C578.816 895.409 572.326 898.347 565.548 899.718C558.818 901.054 552.087 900.909 545.355 899.286C538.587 897.614 532.028 894.495 525.675 889.93C519.336 885.281 513.474 879.249 508.087 871.836L500.43 861.296C495.043 853.882 491.136 846.467 488.709 839.05C486.295 831.55 485.363 824.305 485.912 817.317C486.51 810.293 488.581 803.717 492.124 797.589C495.668 791.461 500.71 786.021 507.252 781.268C515.247 775.459 523.098 772.05 530.805 771.041C538.512 770.032 545.828 771.083 552.753 774.195C559.692 777.224 566.06 781.963 571.856 788.413L557.901 798.552C553.631 794.102 549.291 790.778 544.88 788.578C540.433 786.33 535.81 785.469 531.009 785.996C526.209 786.522 521.071 788.774 515.596 792.752C510.895 796.167 507.404 800.074 505.12 804.472C502.886 808.835 501.754 813.544 501.725 818.599C501.745 823.619 502.821 828.871 504.954 834.355C507.087 839.838 510.196 845.391 514.28 851.012L522.043 861.696C525.81 866.881 529.881 871.364 534.256 875.144C538.68 878.889 543.256 881.672 547.985 883.493C552.714 885.314 557.52 885.968 562.404 885.455C567.252 884.894 572.027 882.906 576.727 879.491C582.687 875.161 586.75 870.766 588.914 866.306C591.078 861.846 591.772 857.196 590.995 852.356C590.266 847.481 588.494 842.29 585.678 836.784ZM692.738 724.464L697.596 731.151C703.37 739.098 707.552 746.942 710.142 754.685C712.732 762.428 713.763 769.86 713.236 776.98C712.708 784.1 710.673 790.725 707.13 796.853C703.635 802.946 698.665 808.334 692.22 813.016C685.969 817.557 679.382 820.566 672.459 822.043C665.584 823.484 658.631 823.39 651.599 821.762C644.616 820.098 637.794 816.874 631.133 812.088C624.473 807.303 618.256 800.937 612.482 792.99L607.624 786.303C601.85 778.356 597.71 770.518 595.203 762.788C592.71 754.975 591.752 747.49 592.328 740.335C592.868 733.131 594.886 726.482 598.381 720.389C601.924 714.261 606.822 708.926 613.073 704.385C619.517 699.702 626.177 696.64 633.052 695.199C639.975 693.723 646.922 693.858 653.892 695.606C660.875 697.269 667.649 700.529 674.212 705.385C680.789 710.157 686.964 716.517 692.738 724.464ZM683.713 741.237L678.749 734.405C674.173 728.105 669.47 723.008 664.641 719.113C659.86 715.183 655.038 712.468 650.172 710.968C645.307 709.469 640.465 709.173 635.647 710.083C630.878 710.957 626.24 713.031 621.733 716.305C617.372 719.473 614.039 723.191 611.734 727.457C609.477 731.688 608.286 736.366 608.16 741.492C608.083 746.582 609.126 752.043 611.29 757.875C613.454 763.706 616.824 769.771 621.401 776.071L626.365 782.903C630.977 789.251 635.739 794.379 640.652 798.288C645.529 802.147 650.442 804.834 655.391 806.347C660.353 807.776 665.195 808.071 669.916 807.232C674.686 806.358 679.251 804.337 683.612 801.168C688.167 797.859 691.597 794.071 693.902 789.805C696.207 785.539 697.374 780.878 697.403 775.823C697.445 770.684 696.336 765.234 694.075 759.473C691.779 753.664 688.325 747.585 683.713 741.237ZM768.067 593.996L844.957 699.825L830.856 710.07L718.273 667.153L777.578 748.779L763.549 758.971L686.66 653.141L700.688 642.949L813.647 685.925L754.184 604.082L768.067 593.996ZM901.238 634.392L867.201 521.971L882.392 510.934L920.104 645.227L909.274 653.096L901.238 634.392ZM806.872 565.802L902.982 633.124L918.505 646.389L907.675 654.257L791.681 576.839L806.872 565.802ZM1041.4 539.664L1049.69 551.075L993.653 591.791L985.362 580.379L1041.4 539.664ZM919.598 483.902L996.488 589.731L982.459 599.923L905.57 494.094L919.598 483.902ZM998.448 496.133L1006.74 507.545L958.113 542.874L949.822 531.462L998.448 496.133ZM972.077 445.774L980.421 457.258L925.107 497.446L916.763 485.961L972.077 445.774ZM999.107 426.135L1034.14 400.681C1042.09 394.908 1049.68 391.243 1056.92 389.688C1064.2 388.097 1071 388.638 1077.31 391.309C1083.63 393.897 1089.29 398.632 1094.29 405.512C1097.81 410.358 1100.04 415.514 1100.97 420.979C1101.92 426.361 1101.57 431.794 1099.93 437.281C1098.31 442.683 1095.44 447.911 1091.34 452.964L1088.52 457.343L1055.6 481.265L1047.16 469.959L1072.02 451.898C1077.06 448.237 1080.62 444.319 1082.69 440.146C1084.73 435.924 1085.51 431.694 1085.02 427.458C1084.54 423.221 1082.97 419.286 1080.33 415.652C1077.38 411.581 1073.99 408.601 1070.17 406.71C1066.35 404.819 1062.13 404.299 1057.49 405.151C1052.87 405.92 1047.86 408.258 1042.48 412.166L1021.48 427.427L1090.02 521.773L1076 531.965L999.107 426.135ZM1137.85 487.025L1077.27 457.747L1091.82 447.059L1152.19 475.274L1152.82 476.146L1137.85 487.025ZM1133.06 328.815L1209.95 434.645L1196.14 444.678L1119.25 338.849L1133.06 328.815ZM1167.07 304.1L1175.42 315.585L1093.65 374.995L1085.3 363.51L1167.07 304.1Z" fill="#FDFDFD"/>
<path d="M585.678 836.784L583.327 833.548L580.559 835.56L582.117 838.606L585.678 836.784ZM599.634 826.645L603.105 824.658L600.889 820.789L597.283 823.409L599.634 826.645ZM602.915 870.903L606.52 872.638L606.525 872.626L606.531 872.614L602.915 870.903ZM565.548 899.718L566.326 903.642L566.333 903.64L566.341 903.639L565.548 899.718ZM545.355 899.286L544.396 903.169L544.406 903.172L544.417 903.174L545.355 899.286ZM525.675 889.93L523.31 893.155L523.325 893.167L523.341 893.178L525.675 889.93ZM488.709 839.05L484.901 840.276L484.904 840.285L484.908 840.294L488.709 839.05ZM485.912 817.317L481.927 816.978L481.926 816.99L481.925 817.003L485.912 817.317ZM552.753 774.195L551.114 777.844L551.134 777.853L551.153 777.861L552.753 774.195ZM571.856 788.413L574.207 791.649L577.798 789.04L574.831 785.739L571.856 788.413ZM557.901 798.552L555.014 801.321L557.43 803.839L560.252 801.788L557.901 798.552ZM544.88 788.578L543.075 792.148L543.085 792.153L543.095 792.158L544.88 788.578ZM505.12 804.472L501.57 802.629L501.565 802.639L501.56 802.648L505.12 804.472ZM501.725 818.599L497.725 818.576L497.725 818.596L497.725 818.615L501.725 818.599ZM504.954 834.355L501.226 835.805L504.954 834.355ZM534.256 875.144L531.641 878.171L531.656 878.184L531.672 878.197L534.256 875.144ZM562.404 885.455L562.821 889.434L562.843 889.431L562.864 889.429L562.404 885.455ZM590.995 852.356L587.039 852.947L587.042 852.969L587.045 852.99L590.995 852.356ZM588.029 840.021L601.985 829.881L597.283 823.409L583.327 833.548L588.029 840.021ZM596.162 828.633C600.041 835.406 602.278 842.241 602.954 849.159L610.916 848.381C610.12 840.23 607.49 832.315 603.105 824.658L596.162 828.633ZM602.954 849.159C603.616 855.934 602.424 862.589 599.3 869.192L606.531 872.614C610.239 864.777 611.727 856.677 610.916 848.381L602.954 849.159ZM599.311 869.169C596.223 875.585 590.775 881.776 582.667 887.666L587.369 894.139C596.221 887.708 602.704 880.565 606.52 872.638L599.311 869.169ZM582.667 887.666C576.878 891.872 570.912 894.552 564.755 895.798L566.341 903.639C573.739 902.142 580.753 898.945 587.369 894.139L582.667 887.666ZM564.769 895.795C558.613 897.016 552.468 896.887 546.293 895.397L544.417 903.174C551.707 904.932 559.023 905.091 566.326 903.642L564.769 895.795ZM546.315 895.403C540.098 893.867 533.999 890.986 528.01 886.681L523.341 893.178C530.057 898.004 537.077 901.361 544.396 903.169L546.315 895.403ZM528.041 886.704C522.086 882.337 516.506 876.618 511.323 869.484L504.851 874.187C510.441 881.881 516.587 888.225 523.31 893.155L528.041 886.704ZM511.323 869.484L503.666 858.945L497.194 863.647L504.851 874.187L511.323 869.484ZM503.666 858.945C498.483 851.811 494.788 844.764 492.511 837.806L484.908 840.294C487.485 848.169 491.604 855.953 497.194 863.647L503.666 858.945ZM492.517 837.825C490.243 830.759 489.396 824.038 489.9 817.63L481.925 817.003C481.329 824.572 482.347 832.34 484.901 840.276L492.517 837.825ZM489.898 817.656C490.446 811.221 492.337 805.213 495.587 799.592L488.661 795.587C484.825 802.222 482.575 809.365 481.927 816.978L489.898 817.656ZM495.587 799.592C498.813 794.012 503.45 788.974 509.603 784.504L504.901 778.032C497.97 783.067 492.522 788.91 488.661 795.587L495.587 799.592ZM509.603 784.504C517.202 778.983 524.435 775.909 531.324 775.007L530.286 767.075C521.761 768.191 513.293 771.935 504.901 778.032L509.603 784.504ZM531.324 775.007C538.314 774.092 544.881 775.043 551.114 777.844L554.393 770.547C546.775 767.123 538.709 765.972 530.286 767.075L531.324 775.007ZM551.153 777.861C557.497 780.63 563.411 785 568.881 791.087L574.831 785.739C568.708 778.926 561.887 773.818 554.354 770.529L551.153 777.861ZM569.505 785.177L555.55 795.316L560.252 801.788L574.207 791.649L569.505 785.177ZM560.787 795.783C556.276 791.081 551.575 787.447 546.664 784.999L543.095 792.158C547.007 794.109 550.986 797.123 555.014 801.321L560.787 795.783ZM546.684 785.009C541.569 782.423 536.17 781.406 530.573 782.019L531.445 789.972C535.449 789.533 539.297 790.238 543.075 792.148L546.684 785.009ZM530.573 782.019C524.858 782.646 519.069 785.285 513.244 789.516L517.947 795.988C523.074 792.263 527.56 790.398 531.445 789.972L530.573 782.019ZM513.244 789.516C508.128 793.233 504.185 797.592 501.57 802.629L508.671 806.315C510.622 802.555 513.662 799.101 517.947 795.988L513.244 789.516ZM501.56 802.648C499.031 807.586 497.757 812.915 497.725 818.576L505.725 818.622C505.75 814.173 506.74 810.083 508.681 806.295L501.56 802.648ZM497.725 818.615C497.747 824.202 498.945 829.941 501.226 835.805L508.682 832.905C506.697 827.801 505.742 823.036 505.725 818.584L497.725 818.615ZM501.226 835.805C503.504 841.66 506.793 847.512 511.044 853.363L517.516 848.66C513.599 843.269 510.671 838.016 508.682 832.905L501.226 835.805ZM511.044 853.363L518.807 864.047L525.279 859.345L517.516 848.66L511.044 853.363ZM518.807 864.047C522.735 869.454 527.01 874.17 531.641 878.171L536.871 872.117C532.752 868.558 528.885 864.308 525.279 859.345L518.807 864.047ZM531.672 878.197C536.389 882.19 541.346 885.223 546.547 887.226L549.422 879.761C545.167 878.122 540.971 875.588 536.841 872.091L531.672 878.197ZM546.547 887.226C551.847 889.267 557.288 890.015 562.821 889.434L561.986 881.477C557.752 881.922 553.58 881.362 549.422 879.761L546.547 887.226ZM562.864 889.429C568.515 888.775 573.928 886.469 579.078 882.727L574.376 876.255C570.126 879.343 565.99 881.014 561.944 881.482L562.864 889.429ZM579.078 882.727C585.332 878.184 589.955 873.322 592.513 868.052L585.315 864.559C583.544 868.209 580.043 872.138 574.376 876.255L579.078 882.727ZM592.513 868.052C595.031 862.863 595.853 857.382 594.944 851.722L587.045 852.99C587.691 857.01 587.125 860.829 585.315 864.559L592.513 868.052ZM594.951 851.765C594.144 846.368 592.204 840.761 589.239 834.963L582.117 838.606C584.783 843.82 586.388 848.594 587.039 852.947L594.951 851.765ZM707.13 796.853L703.667 794.851L703.66 794.863L707.13 796.853ZM672.459 822.043L673.279 825.958L673.293 825.955L672.459 822.043ZM651.599 821.762L650.672 825.653L650.684 825.656L650.697 825.659L651.599 821.762ZM595.203 762.788L591.393 764.004L591.396 764.013L591.398 764.022L595.203 762.788ZM592.328 740.335L596.315 740.656L596.315 740.645L596.316 740.634L592.328 740.335ZM598.381 720.389L594.918 718.387L594.911 718.399L598.381 720.389ZM633.052 695.199L633.872 699.114L633.886 699.111L633.052 695.199ZM653.892 695.606L652.919 699.486L652.942 699.491L652.965 699.497L653.892 695.606ZM674.212 705.385L671.833 708.6L671.848 708.611L671.863 708.622L674.212 705.385ZM664.641 719.113L662.101 722.203L662.115 722.215L662.13 722.226L664.641 719.113ZM635.647 710.083L636.368 714.017L636.379 714.015L636.389 714.013L635.647 710.083ZM611.734 727.457L608.215 725.555L608.21 725.565L608.205 725.574L611.734 727.457ZM608.16 741.492L604.161 741.394L604.161 741.412L604.161 741.431L608.16 741.492ZM640.652 798.288L638.161 801.418L638.169 801.424L640.652 798.288ZM655.391 806.347L654.222 810.172L654.253 810.181L654.284 810.19L655.391 806.347ZM669.916 807.232L670.616 811.17L670.627 811.169L670.637 811.167L669.916 807.232ZM697.403 775.823L693.403 775.79L693.403 775.8L697.403 775.823ZM694.075 759.473L697.799 758.012L697.795 758.003L694.075 759.473ZM689.502 726.815L694.36 733.502L700.832 728.799L695.974 722.112L689.502 726.815ZM694.36 733.502C699.941 741.183 703.911 748.668 706.349 755.954L713.935 753.416C711.193 745.217 706.799 737.012 700.832 728.799L694.36 733.502ZM706.349 755.954C708.794 763.265 709.73 770.164 709.247 776.685L717.225 777.276C717.797 769.555 716.67 761.591 713.935 753.416L706.349 755.954ZM709.247 776.685C708.764 783.209 706.906 789.249 703.667 794.851L710.592 798.855C714.44 792.2 716.653 784.992 717.225 777.276L709.247 776.685ZM703.66 794.863C700.481 800.404 695.918 805.385 689.869 809.78L694.571 816.252C701.411 811.282 706.788 805.487 710.599 798.843L703.66 794.863ZM689.869 809.78C684.029 814.023 677.952 816.781 671.625 818.131L673.293 825.955C680.812 824.351 687.909 821.092 694.571 816.252L689.869 809.78ZM671.638 818.128C665.348 819.446 658.983 819.366 652.501 817.865L650.697 825.659C658.278 827.414 665.82 827.521 673.279 825.958L671.638 818.128ZM652.526 817.871C646.116 816.344 639.765 813.365 633.467 808.84L628.799 815.337C635.823 820.383 643.115 823.853 650.672 825.653L652.526 817.871ZM633.467 808.84C627.214 804.347 621.289 798.306 615.718 790.639L609.246 795.341C615.222 803.567 621.731 810.259 628.799 815.337L633.467 808.84ZM615.718 790.639L610.86 783.952L604.388 788.654L609.246 795.341L615.718 790.639ZM610.86 783.952C605.283 776.276 601.361 768.81 599.008 761.554L591.398 764.022C594.058 772.225 598.416 780.435 604.388 788.654L610.86 783.952ZM599.014 761.572C596.657 754.185 595.786 747.224 596.315 740.656L588.34 740.014C587.717 747.757 588.764 755.765 591.393 764.004L599.014 761.572ZM596.316 740.634C596.814 734.008 598.661 727.94 601.851 722.379L594.911 718.399C591.111 725.025 588.923 732.253 588.339 740.035L596.316 740.634ZM601.844 722.391C605.082 716.791 609.584 711.864 615.424 707.621L610.721 701.149C604.06 705.989 598.767 711.731 594.918 718.387L601.844 722.391ZM615.424 707.621C621.473 703.226 627.62 700.425 633.872 699.114L632.231 691.284C624.735 692.856 617.562 696.179 610.721 701.149L615.424 707.621ZM633.886 699.111C640.203 697.764 646.532 697.884 652.919 699.486L654.864 691.726C647.312 689.832 639.747 689.682 632.218 691.287L633.886 699.111ZM652.965 699.497C659.356 701.019 665.644 704.021 671.833 708.6L676.591 702.169C669.653 697.036 662.394 693.519 654.819 691.715L652.965 699.497ZM671.863 708.622C678.037 713.102 683.925 719.139 689.502 726.815L695.974 722.112C690.003 713.894 683.541 707.212 676.561 702.147L671.863 708.622ZM686.949 738.886L681.985 732.054L675.513 736.756L680.477 743.588L686.949 738.886ZM681.985 732.054C677.252 725.538 672.314 720.164 667.152 716L662.13 722.226C666.625 725.853 671.093 730.672 675.513 736.756L681.985 732.054ZM667.181 716.023C662.083 711.832 656.808 708.828 651.35 707.146L648.994 714.791C653.267 716.108 657.638 718.534 662.101 722.203L667.181 716.023ZM651.35 707.146C645.888 705.462 640.388 705.117 634.905 706.152L636.389 714.013C640.543 713.229 644.726 713.475 648.994 714.791L651.35 707.146ZM634.926 706.148C629.486 707.145 624.301 709.495 619.382 713.069L624.084 719.541C628.179 716.566 632.269 714.768 636.368 714.017L634.926 706.148ZM619.382 713.069C614.591 716.55 610.835 720.706 608.215 725.555L615.253 729.358C617.243 725.675 620.153 722.397 624.084 719.541L619.382 713.069ZM608.205 725.574C605.634 730.393 604.301 735.689 604.161 741.394L612.159 741.59C612.271 737.043 613.32 732.982 615.263 729.339L608.205 725.574ZM604.161 741.431C604.074 747.113 605.241 753.07 607.54 759.266L615.04 756.483C613.012 751.016 612.091 746.051 612.16 741.552L604.161 741.431ZM607.54 759.266C609.858 765.513 613.425 771.898 618.165 778.422L624.637 773.72C620.223 767.645 617.05 761.9 615.04 756.483L607.54 759.266ZM618.165 778.422L623.129 785.254L629.601 780.552L624.637 773.72L618.165 778.422ZM623.129 785.254C627.903 791.825 632.906 797.237 638.161 801.418L643.142 795.157C638.572 791.522 634.051 786.677 629.601 780.552L623.129 785.254ZM638.169 801.424C643.361 805.533 648.711 808.487 654.222 810.172L656.56 802.521C652.174 801.18 647.697 798.762 643.134 795.151L638.169 801.424ZM654.284 810.19C659.787 811.775 665.248 812.124 670.616 811.17L669.216 803.294C665.142 804.018 660.919 803.776 656.498 802.503L654.284 810.19ZM670.637 811.167C676.058 810.173 681.172 807.885 685.963 804.404L681.261 797.932C677.33 800.789 673.313 802.543 669.195 803.298L670.637 811.167ZM685.963 804.404C690.925 800.8 694.789 796.578 697.421 791.707L690.383 787.904C688.405 791.565 685.409 794.918 681.261 797.932L685.963 804.404ZM697.421 791.707C700.052 786.838 701.371 781.529 701.403 775.846L693.403 775.8C693.378 780.228 692.363 784.24 690.383 787.904L697.421 791.707ZM701.403 775.856C701.45 770.113 700.209 764.154 697.799 758.012L690.352 760.934C692.463 766.314 693.44 771.255 693.403 775.79L701.403 775.856ZM697.795 758.003C695.349 751.813 691.711 745.44 686.949 738.886L680.477 743.588C684.94 749.73 688.21 755.514 690.355 760.943L697.795 758.003ZM768.067 593.996L771.303 591.644L768.952 588.408L765.716 590.759L768.067 593.996ZM844.957 699.825L847.308 703.061L850.544 700.71L848.193 697.474L844.957 699.825ZM830.856 710.07L829.431 713.808L831.455 714.579L833.207 713.306L830.856 710.07ZM718.273 667.153L719.698 663.416L707.134 658.626L715.037 669.505L718.273 667.153ZM777.578 748.779L779.929 752.015L783.165 749.664L780.814 746.428L777.578 748.779ZM763.549 758.971L760.313 761.322L762.664 764.558L765.901 762.207L763.549 758.971ZM686.66 653.141L684.309 649.905L681.073 652.257L683.424 655.493L686.66 653.141ZM700.688 642.949L702.11 639.211L700.088 638.441L698.337 639.713L700.688 642.949ZM813.647 685.925L812.225 689.664L824.777 694.44L816.883 683.574L813.647 685.925ZM754.184 604.082L751.833 600.846L748.597 603.197L750.948 606.433L754.184 604.082ZM764.831 596.347L841.721 702.176L848.193 697.474L771.303 591.644L764.831 596.347ZM842.606 696.589L828.505 706.834L833.207 713.306L847.308 703.061L842.606 696.589ZM832.281 706.332L719.698 663.416L716.849 670.891L829.431 713.808L832.281 706.332ZM715.037 669.505L774.342 751.13L780.814 746.428L721.509 664.802L715.037 669.505ZM775.226 745.543L761.198 755.735L765.901 762.207L779.929 752.015L775.226 745.543ZM766.785 756.62L689.896 650.79L683.424 655.493L760.313 761.322L766.785 756.62ZM689.011 656.378L703.039 646.185L698.337 639.713L684.309 649.905L689.011 656.378ZM699.266 646.688L812.225 689.664L815.069 682.187L702.11 639.211L699.266 646.688ZM816.883 683.574L757.42 601.731L750.948 606.433L810.411 688.277L816.883 683.574ZM756.535 607.318L770.418 597.232L765.716 590.759L751.833 600.846L756.535 607.318ZM901.238 634.392L897.409 635.551L897.474 635.765L897.563 635.971L901.238 634.392ZM867.201 521.971L864.85 518.735L862.548 520.407L863.372 523.13L867.201 521.971ZM882.392 510.934L886.243 509.852L884.69 504.32L880.041 507.698L882.392 510.934ZM920.104 645.227L922.456 648.463L924.708 646.826L923.955 644.146L920.104 645.227ZM909.274 653.096L905.599 654.675L907.575 659.274L911.625 656.332L909.274 653.096ZM806.872 565.802L809.167 562.526L806.83 560.889L804.521 562.566L806.872 565.802ZM902.982 633.124L905.581 630.083L905.435 629.958L905.277 629.848L902.982 633.124ZM918.505 646.389L920.856 649.625L924.96 646.643L921.104 643.348L918.505 646.389ZM907.675 654.257L905.455 657.584L907.772 659.131L910.026 657.493L907.675 654.257ZM791.681 576.839L789.33 573.603L784.684 576.978L789.46 580.166L791.681 576.839ZM905.066 633.233L871.029 520.812L863.372 523.13L897.409 635.551L905.066 633.233ZM869.552 525.207L884.743 514.17L880.041 507.698L864.85 518.735L869.552 525.207ZM878.541 512.015L916.253 646.309L923.955 644.146L886.243 509.852L878.541 512.015ZM917.753 641.991L906.923 649.86L911.625 656.332L922.456 648.463L917.753 641.991ZM912.949 651.517L904.913 632.813L897.563 635.971L905.599 654.675L912.949 651.517ZM804.577 569.078L900.687 636.401L905.277 629.848L809.167 562.526L804.577 569.078ZM900.384 636.165L915.907 649.43L921.104 643.348L905.581 630.083L900.384 636.165ZM916.154 643.153L905.324 651.021L910.026 657.493L920.856 649.625L916.154 643.153ZM909.896 650.93L793.902 573.512L789.46 580.166L905.455 657.584L909.896 650.93ZM794.032 580.075L809.223 569.038L804.521 562.566L789.33 573.603L794.032 580.075ZM1041.4 539.664L1044.64 537.313L1042.29 534.077L1039.05 536.428L1041.4 539.664ZM1049.69 551.075L1052.04 554.311L1055.28 551.96L1052.93 548.724L1049.69 551.075ZM993.653 591.791L990.417 594.142L992.768 597.378L996.004 595.027L993.653 591.791ZM985.362 580.379L983.011 577.143L979.775 579.494L982.126 582.73L985.362 580.379ZM919.598 483.902L922.834 481.551L920.483 478.315L917.247 480.666L919.598 483.902ZM996.488 589.731L998.839 592.967L1002.07 590.616L999.724 587.38L996.488 589.731ZM982.459 599.923L979.223 602.275L981.575 605.511L984.811 603.16L982.459 599.923ZM905.57 494.094L903.219 490.858L899.983 493.209L902.334 496.445L905.57 494.094ZM998.448 496.133L1001.68 493.782L999.333 490.546L996.097 492.897L998.448 496.133ZM1006.74 507.545L1009.09 510.781L1012.33 508.43L1009.98 505.194L1006.74 507.545ZM958.113 542.874L954.877 545.225L957.228 548.461L960.464 546.11L958.113 542.874ZM949.822 531.462L947.471 528.226L944.234 530.577L946.586 533.813L949.822 531.462ZM972.077 445.774L975.313 443.423L972.962 440.187L969.726 442.538L972.077 445.774ZM980.421 457.258L982.772 460.494L986.008 458.143L983.657 454.907L980.421 457.258ZM925.107 497.446L921.871 499.797L924.222 503.033L927.458 500.682L925.107 497.446ZM916.763 485.961L914.412 482.725L911.176 485.076L913.527 488.313L916.763 485.961ZM1038.17 542.015L1046.46 553.426L1052.93 548.724L1044.64 537.313L1038.17 542.015ZM1047.34 547.839L991.302 588.555L996.004 595.027L1052.04 554.311L1047.34 547.839ZM996.889 589.44L988.598 578.028L982.126 582.73L990.417 594.142L996.889 589.44ZM987.713 583.615L1043.75 542.9L1039.05 536.428L983.011 577.143L987.713 583.615ZM916.362 486.253L993.252 592.083L999.724 587.38L922.834 481.551L916.362 486.253ZM994.137 586.495L980.108 596.687L984.811 603.16L998.839 592.967L994.137 586.495ZM985.696 597.572L908.806 491.743L902.334 496.445L979.223 602.275L985.696 597.572ZM907.921 497.33L921.949 487.138L917.247 480.666L903.219 490.858L907.921 497.33ZM995.212 498.484L1003.5 509.896L1009.98 505.194L1001.68 493.782L995.212 498.484ZM1004.39 504.309L955.762 539.638L960.464 546.11L1009.09 510.781L1004.39 504.309ZM961.349 540.523L953.058 529.111L946.586 533.813L954.877 545.225L961.349 540.523ZM952.173 534.698L1000.8 499.369L996.097 492.897L947.471 528.226L952.173 534.698ZM968.841 448.125L977.184 459.609L983.657 454.907L975.313 443.423L968.841 448.125ZM978.069 454.022L922.756 494.21L927.458 500.682L982.772 460.494L978.069 454.022ZM928.343 495.095L919.999 483.61L913.527 488.313L921.871 499.797L928.343 495.095ZM919.114 489.197L974.428 449.01L969.726 442.538L914.412 482.725L919.114 489.197ZM999.107 426.135L996.756 422.899L993.52 425.25L995.871 428.486L999.107 426.135ZM1056.92 389.688L1057.76 393.598L1057.77 393.596L1056.92 389.688ZM1077.31 391.309L1075.75 394.993L1075.77 395.002L1075.79 395.011L1077.31 391.309ZM1100.97 420.979L1097.03 421.654L1097.03 421.663L1097.03 421.673L1100.97 420.979ZM1099.93 437.281L1103.76 438.434L1103.77 438.427L1099.93 437.281ZM1091.34 452.964L1088.23 450.443L1088.09 450.615L1087.97 450.801L1091.34 452.964ZM1088.52 457.343L1090.87 460.579L1091.48 460.138L1091.89 459.506L1088.52 457.343ZM1055.6 481.265L1052.39 483.657L1054.75 486.822L1057.95 484.501L1055.6 481.265ZM1047.16 469.959L1044.81 466.723L1041.53 469.104L1043.95 472.351L1047.16 469.959ZM1082.69 440.146L1086.27 441.927L1086.28 441.907L1086.29 441.887L1082.69 440.146ZM1057.49 405.151L1058.14 409.097L1058.18 409.092L1058.21 409.085L1057.49 405.151ZM1021.48 427.427L1019.13 424.191L1015.89 426.543L1018.24 429.779L1021.48 427.427ZM1090.02 521.773L1092.38 525.009L1095.61 522.658L1093.26 519.422L1090.02 521.773ZM1076 531.965L1072.76 534.316L1075.11 537.552L1078.35 535.201L1076 531.965ZM1137.85 487.025L1136.11 490.626L1138.27 491.668L1140.2 490.261L1137.85 487.025ZM1077.27 457.747L1074.9 454.522L1069.54 458.456L1075.53 461.348L1077.27 457.747ZM1091.82 447.059L1093.52 443.436L1091.37 442.431L1089.46 443.835L1091.82 447.059ZM1152.19 475.274L1155.43 472.923L1154.82 472.087L1153.88 471.65L1152.19 475.274ZM1152.82 476.146L1155.18 479.382L1158.41 477.031L1156.06 473.795L1152.82 476.146ZM1001.46 429.371L1036.49 403.918L1031.79 397.445L996.756 422.899L1001.46 429.371ZM1036.49 403.918C1044.13 398.37 1051.21 395.005 1057.76 393.598L1056.07 385.777C1048.15 387.481 1040.05 391.446 1031.79 397.445L1036.49 403.918ZM1057.77 393.596C1064.32 392.165 1070.27 392.672 1075.75 394.993L1078.87 387.626C1071.73 384.603 1064.08 384.029 1056.06 385.78L1057.77 393.596ZM1075.79 395.011C1081.27 397.256 1086.38 401.437 1091.05 407.863L1097.52 403.161C1092.19 395.826 1085.98 390.538 1078.82 387.607L1075.79 395.011ZM1091.05 407.863C1094.24 412.253 1096.21 416.842 1097.03 421.654L1104.91 420.304C1103.87 414.185 1101.38 408.463 1097.52 403.161L1091.05 407.863ZM1097.03 421.673C1097.87 426.412 1097.57 431.216 1096.1 436.134L1103.77 438.427C1105.58 432.373 1105.97 426.309 1104.91 420.285L1097.03 421.673ZM1096.1 436.127C1094.65 440.96 1092.06 445.733 1088.23 450.443L1094.44 455.485C1098.83 450.089 1101.96 444.406 1103.76 438.434L1096.1 436.127ZM1087.97 450.801L1085.16 455.179L1091.89 459.506L1094.7 455.128L1087.97 450.801ZM1086.17 454.106L1053.25 478.029L1057.95 484.501L1090.87 460.579L1086.17 454.106ZM1058.8 478.873L1050.37 467.567L1043.95 472.351L1052.39 483.657L1058.8 478.873ZM1049.51 473.195L1074.37 455.134L1069.67 448.662L1044.81 466.723L1049.51 473.195ZM1074.37 455.134C1079.76 451.216 1083.83 446.839 1086.27 441.927L1079.11 438.364C1077.4 441.8 1074.35 445.258 1069.67 448.662L1074.37 455.134ZM1086.29 441.887C1088.63 437.053 1089.58 432.065 1089 427.001L1081.05 427.914C1081.44 431.324 1080.84 434.795 1079.09 438.405L1086.29 441.887ZM1089 427.001C1088.43 422.043 1086.59 417.461 1083.57 413.301L1077.1 418.003C1079.35 421.111 1080.65 424.399 1081.05 427.914L1089 427.001ZM1083.57 413.301C1080.3 408.802 1076.44 405.351 1071.95 403.125L1068.4 410.294C1071.54 411.85 1074.45 414.361 1077.1 418.003L1083.57 413.301ZM1071.95 403.125C1067.27 400.81 1062.16 400.227 1056.77 401.217L1058.21 409.085C1062.1 408.372 1065.43 408.827 1068.4 410.294L1071.95 403.125ZM1056.83 401.205C1051.4 402.109 1045.82 404.8 1040.13 408.93L1044.84 415.402C1049.91 411.716 1054.33 409.73 1058.14 409.097L1056.83 401.205ZM1040.13 408.93L1019.13 424.191L1023.83 430.664L1044.84 415.402L1040.13 408.93ZM1018.24 429.779L1086.79 524.124L1093.26 519.422L1024.71 425.076L1018.24 429.779ZM1087.67 518.537L1073.65 528.729L1078.35 535.201L1092.38 525.009L1087.67 518.537ZM1079.23 529.614L1002.34 423.784L995.871 428.486L1072.76 534.316L1079.23 529.614ZM1139.59 483.423L1079.01 454.145L1075.53 461.348L1136.11 490.626L1139.59 483.423ZM1079.63 460.971L1094.19 450.284L1089.46 443.835L1074.9 454.522L1079.63 460.971ZM1090.13 450.683L1150.5 478.897L1153.88 471.65L1093.52 443.436L1090.13 450.683ZM1148.95 477.625L1149.59 478.497L1156.06 473.795L1155.43 472.923L1148.95 477.625ZM1150.47 472.91L1135.5 483.788L1140.2 490.261L1155.18 479.382L1150.47 472.91ZM1133.06 328.815L1136.29 326.464L1133.94 323.228L1130.71 325.579L1133.06 328.815ZM1209.95 434.645L1212.3 437.881L1215.53 435.529L1213.18 432.293L1209.95 434.645ZM1196.14 444.678L1192.9 447.029L1195.25 450.265L1198.49 447.914L1196.14 444.678ZM1119.25 338.849L1116.9 335.613L1113.66 337.964L1116.01 341.2L1119.25 338.849ZM1167.07 304.1L1170.31 301.749L1167.96 298.513L1164.72 300.864L1167.07 304.1ZM1175.42 315.585L1177.77 318.821L1181 316.47L1178.65 313.234L1175.42 315.585ZM1093.65 374.995L1090.41 377.346L1092.76 380.582L1096 378.231L1093.65 374.995ZM1085.3 363.51L1082.95 360.274L1079.72 362.625L1082.07 365.862L1085.3 363.51ZM1129.82 331.166L1206.71 436.996L1213.18 432.293L1136.29 326.464L1129.82 331.166ZM1207.6 431.408L1193.79 441.442L1198.49 447.914L1212.3 437.881L1207.6 431.408ZM1199.37 442.327L1122.48 336.498L1116.01 341.2L1192.9 447.029L1199.37 442.327ZM1121.6 342.085L1135.41 332.051L1130.71 325.579L1116.9 335.613L1121.6 342.085ZM1163.84 306.452L1172.18 317.936L1178.65 313.234L1170.31 301.749L1163.84 306.452ZM1173.07 312.349L1091.3 371.759L1096 378.231L1177.77 318.821L1173.07 312.349ZM1096.88 372.644L1088.54 361.159L1082.07 365.862L1090.41 377.346L1096.88 372.644ZM1087.65 366.746L1169.42 307.337L1164.72 300.864L1082.95 360.274L1087.65 366.746Z" fill="black"/>
<defs>
<linearGradient id="paint0_linear_603_3" x1="520.664" y1="1064.45" x2="520.664" y2="13.5008" gradientUnits="userSpaceOnUse">
<stop stop-color="#084CFB" stop-opacity="0"/>
<stop offset="1" stop-color="#0A4DFA"/>
</linearGradient>
<linearGradient id="paint1_linear_603_3" x1="1155.63" y1="1231" x2="1155.63" y2="180.581" gradientUnits="userSpaceOnUse">
<stop stop-color="#FA000F"/>
<stop offset="1" stop-color="#FF0615" stop-opacity="0"/>
<stop offset="1" stop-color="#F9F9F9" stop-opacity="0"/>
</linearGradient>
</defs>
</svg>
