<svg width="24" height="18" viewBox="0 0 24 18" fill="none" xmlns="http://www.w3.org/2000/svg">
<g id="LengthFull">
<path id="Inside" fill-rule="evenodd" clip-rule="evenodd" d="M12 5C9.238 5 7 7.239 7 10V12H17V10C17 7.239 14.762 5 12 5ZM22 16H20V14H19V16H17V13H16V16H14V14H13V16H11V14H10V16H8V13H7V16H5V14H4V16H2V12H4V10C4 5.582 7.582 2 12 2C16.418 2 20 5.582 20 10V12H22V16Z" fill="#05FB2D"/>
<path id="Vector" d="M12 5C9.238 5 7 7.239 7 10V12H17V10C17 7.239 14.762 5 12 5ZM9 10C9 8.346 10.346 7 12 7C13.654 7 15 8.346 15 10H9ZM22 10C22 4.477 17.523 0 12 0C6.477 0 2 4.477 2 10H1C0.447715 10 0 10.4477 0 11V17C0 17.5523 0.447715 18 1 18H23C23.5523 18 24 17.5523 24 17V11C24 10.4477 23.5523 10 23 10H22ZM22 16H20V14H19V16H17V13H16V16H14V14H13V16H11V14H10V16H8V13H7V16H5V14H4V16H2V12H4V10C4 5.582 7.582 2 12 2C16.418 2 20 5.582 20 10V12H22V16Z" fill="black"/>
</g>
</svg>
