<svg width="63" height="69" viewBox="0 0 63 69" fill="none" xmlns="http://www.w3.org/2000/svg">
<g id="Weight">
<path id="small" d="M13.1373 38.0583C13.9096 35.6408 16.1562 34 18.694 34H42.4215C44.8793 34 47.0733 35.5404 47.9081 37.8521L54.5285 56.1854C55.9015 59.9877 53.0845 64 49.0419 64H12.8376C8.8867 64 6.07861 60.1551 7.28083 56.3916L13.1373 38.0583Z" fill="#F10B0B"/>
<path id="Union" fill-rule="evenodd" clip-rule="evenodd" d="M39.9981 30C43.6388 27.2637 45.9981 22.9072 45.9981 18C45.9981 9.71582 39.2833 3 30.9981 3C22.713 3 15.9981 9.71582 15.9981 18C15.9981 22.9072 18.3575 27.2637 21.9981 30H16.6114C13.5645 30 10.8692 31.9688 9.94344 34.8701L2.9161 56.8701C1.47078 61.3857 4.84188 66 9.58407 66H53.0294C57.8809 66 61.2598 61.1855 59.6114 56.6221L51.6661 34.6221C50.6661 31.8486 48.0333 30 45.0841 30H39.9981ZM40.9981 18C40.9981 23.5225 36.5216 28 30.9981 28C25.4747 28 20.9981 23.5225 20.9981 18C20.9981 12.4775 25.4747 8 30.9981 8C36.5216 8 40.9981 12.4775 40.9981 18ZM13.2833 37.0586C14.0567 34.6406 16.3028 33 18.8419 33H30.9981H42.5684C43.8888 33 45.1348 33.4453 46.1348 34.2158C46.9942 34.8789 47.67 35.7832 48.0567 36.8525L54.6778 55.1855C56.0489 58.9873 53.2325 63 49.1895 63H12.9864C9.03329 63 6.22469 59.1553 7.42782 55.3916L13.2833 37.0586Z" fill="#0A0909" stroke="black" stroke-width="5"/>
</g>
</svg>
